<?xml version="1.0" encoding="UTF-8"?>
<svg id="Layer_1" data-name="Layer 1" xmlns="http://www.w3.org/2000/svg" viewBox="0 0 477.96 209.87">
  <defs>
    <style>
      .cls-1 {
        fill: #231f20;
        font-family: Baskerville, Baskerville;
        font-size: 30px;
      }

      .cls-2 {
        font-family: OpenSansRoman-Bold, 'Open Sans';
        font-size: 160px;
        font-variation-settings: 'wght' 700, 'wdth' 100;
        font-weight: 700;
      }

      .cls-2, .cls-3 {
        fill: #f79051;
      }

      .cls-3 {
        stroke-width: 0px;
      }

      .cls-4 {
        fill: none;
        stroke: #f79051;
        stroke-miterlimit: 10;
        stroke-width: 2px;
      }
    </style>
  </defs>
  <text class="cls-2" transform="translate(16.08 158.72)"><tspan x="0" y="0">Jake’s</tspan></text>
  <g>
    <path class="cls-4" d="m112.25,40.39c-.97.3-3.94,1.33-7.03.19-3.77-1.39-8.06-6.12-6.95-11.78.86-4.38,4.62-7.51,8.68-8.14,4.43-.69,7.74,1.83,8.34,2.3.29-.37,6.66-8.28,16.58-7.01,7.16.91,13.17,6.22,15.15,13.41,13.84-.56,14.54,7.23,13.94,11.45-.6,4.25-3.45,10.48-16.78,7.04-17.21-8.79-26.53-9.16-31.94-7.47Z"/>
    <path class="cls-4" d="m111.27,40.68l-.13,14.94s16.61-2.73,27.6,4.83l5.44-12.59"/>
    <path class="cls-3" d="m124.48,50.47c4.47-.2,9.29,1.16,12.52,4.36-4.07-1.7-8.34-2.89-12.52-4.36h0Z"/>
    <path class="cls-3" d="m113.75,32.88c5.86-.57,11.68.01,17.42,1.43,5.62,1.8,10.79,4.48,15.64,7.78-5.46-1.81-10.76-4.19-16.2-5.86-5.52-1.46-11.21-2.34-16.86-3.35h0Z"/>
  </g>
  <text class="cls-1" transform="translate(247.81 194.64)"><tspan x="0" y="0">Frozen Mo:Mo</tspan></text>
</svg>